<svg viewBox="0 0 512 512" xmlns="http://www.w3.org/2000/svg" fill-rule="evenodd" clip-rule="evenodd" stroke-linejoin="round" stroke-miterlimit="2"><g transform="translate(-443.84 -163.205) scale(8.33333)"><clipPath id="prefix__a"><path d="M113.754 50c0 16.557-13.443 30-30 30-16.558 0-30-13.443-30-30 0-16.557 13.442-30 30-30 16.557 0 30 13.443 30 30z"/></clipPath><g clip-path="url(#prefix__a)"><path d="M83.754 20c16.557 0 30 13.443 30 30 0 16.557-13.443 30-30 30-16.557 0-30-13.443-30-30 0-16.557 13.443-30 30-30zm0 23.607l-8.87 9.802h17.74l-8.87-9.802z" fill="url(#prefix___Linear2)"/><path d="M115.258-18.959l49.158 54.814-39.209 35.163-49.158-54.815 39.209-35.162z" fill="url(#prefix___Linear3)" fill-rule="nonzero"/><path d="M66.097 121.749L16.94 66.935l39.209-35.163 49.157 54.814-39.209 35.163z" fill="url(#prefix___Linear4)" fill-rule="nonzero"/><path d="M74.914 112.73L25.756 57.916l39.209-35.163 49.158 54.815-39.209 35.162z" fill="url(#prefix___Linear5)" fill-rule="nonzero"/><path fill="url(#prefix___Linear6)" fill-rule="nonzero" d="M45.25 75.627h73.628v52.667H45.25z"/><path d="M109.181 127.304l49.737-54.29-38.833-35.577-49.738 54.289 38.834 35.578z" fill="url(#prefix___Linear7)" fill-rule="nonzero"/><path d="M58.083-24.565L8.346 29.725l38.833 35.577 49.737-54.289-38.833-35.578z" fill="url(#prefix___Linear8)" fill-rule="nonzero"/><path d="M66.894-15.754L17.156 38.535 55.99 74.113l49.737-54.29-38.833-35.577z" fill="url(#prefix___Linear9)" fill-rule="nonzero"/><path fill="url(#prefix___Linear10)" fill-rule="nonzero" d="M52.906 53.412h62.185v11.683H52.906z"/></g></g><defs><linearGradient id="prefix___Linear2" x1="0" y1="0" x2="1" y2="0" gradientUnits="userSpaceOnUse" gradientTransform="rotate(41.223 -17.155 105.75) scale(50.7472)"><stop offset="0" stop-color="#01bb99"/><stop offset="1" stop-color="#206ed4"/></linearGradient><linearGradient id="prefix___Linear3" x1="0" y1="0" x2="1" y2="0" gradientUnits="userSpaceOnUse" gradientTransform="rotate(-106.929 75.332 -15.535) scale(36.4266)"><stop offset="0" stop-color="#094fcf" stop-opacity=".4"/><stop offset=".53" stop-color="#094fcf" stop-opacity=".11"/><stop offset="1" stop-color="#094fcf" stop-opacity="0"/></linearGradient><linearGradient id="prefix___Linear4" x1="0" y1="0" x2="1" y2="0" gradientUnits="userSpaceOnUse" gradientTransform="matrix(-8.5781 7.8506 -7.8506 -8.5781 79.353 57.68)"><stop offset="0" stop-color="#094fcf" stop-opacity=".1"/><stop offset=".53" stop-color="#094fcf" stop-opacity=".03"/><stop offset="1" stop-color="#094fcf" stop-opacity="0"/></linearGradient><linearGradient id="prefix___Linear5" x1="0" y1="0" x2="1" y2="0" gradientUnits="userSpaceOnUse" gradientTransform="rotate(135.785 34.236 42.264) scale(11.3082)"><stop offset="0" stop-color="#094fcf" stop-opacity=".1"/><stop offset=".53" stop-color="#094fcf" stop-opacity=".03"/><stop offset="1" stop-color="#094fcf" stop-opacity="0"/></linearGradient><linearGradient id="prefix___Linear6" x1="0" y1="0" x2="1" y2="0" gradientUnits="userSpaceOnUse" gradientTransform="rotate(89.06 1.853 78.955) scale(26.803)"><stop offset="0" stop-color="#5994fe" stop-opacity=".2"/><stop offset="1" stop-color="#5994fe" stop-opacity="0"/></linearGradient><linearGradient id="prefix___Linear7" x1="0" y1="0" x2="1" y2="0" gradientUnits="userSpaceOnUse" gradientTransform="rotate(42.259 -33.685 156.887) scale(11.5716)"><stop offset="0" stop-color="#094fcf" stop-opacity=".3"/><stop offset="1" stop-color="#094fcf" stop-opacity="0"/></linearGradient><linearGradient id="prefix___Linear8" x1="0" y1="0" x2="1" y2="0" gradientUnits="userSpaceOnUse" gradientTransform="rotate(-135.786 43.492 5.124) scale(8.316)"><stop offset="0" stop-color="#094fcf" stop-opacity=".05"/><stop offset=".53" stop-color="#094fcf" stop-opacity=".01"/><stop offset="1" stop-color="#094fcf" stop-opacity="0"/></linearGradient><linearGradient id="prefix___Linear9" x1="0" y1="0" x2="1" y2="0" gradientUnits="userSpaceOnUse" gradientTransform="scale(-8.0639) rotate(46.558 1.933 -14.466)"><stop offset="0" stop-color="#094fcf" stop-opacity=".05"/><stop offset=".53" stop-color="#094fcf" stop-opacity=".01"/><stop offset="1" stop-color="#094fcf" stop-opacity="0"/></linearGradient><linearGradient id="prefix___Linear10" x1="0" y1="0" x2="1" y2="0" gradientUnits="userSpaceOnUse" gradientTransform="scale(-48.8986) rotate(.217 315.906 -608.48)"><stop offset="0" stop-color="#094fcf" stop-opacity=".4"/><stop offset="1" stop-color="#094fcf" stop-opacity="0"/></linearGradient></defs></svg>