<?xml version="1.0" encoding="UTF-8" standalone="no"?>
<!DOCTYPE svg PUBLIC "-//W3C//DTD SVG 1.1//EN" "http://www.w3.org/Graphics/SVG/1.1/DTD/svg11.dtd">
<svg width="100%" height="100%" viewBox="0 0 512 512" version="1.1" xmlns="http://www.w3.org/2000/svg" xmlns:xlink="http://www.w3.org/1999/xlink" xml:space="preserve" xmlns:serif="http://www.serif.com/" style="fill-rule:evenodd;clip-rule:evenodd;stroke-linejoin:round;stroke-miterlimit:2;">
    <g transform="matrix(15.9486,0,0,15.9486,-65.4855,-60.4616)">
        <path d="M11.081,30.527L6.361,35.248C5.999,35.608 5.406,35.608 5.044,35.248L4.752,34.956C4.392,34.594 4.392,34.002 4.752,33.64L9.472,28.919C9.834,28.558 10.428,28.558 10.79,28.919L11.081,29.21C11.256,29.384 11.354,29.622 11.354,29.869C11.354,30.115 11.256,30.353 11.081,30.527Z" style="fill:rgb(251,188,4);fill-rule:nonzero;"/>
        <path d="M23.75,32.5C23.75,32.5 29.793,32.5 29.793,32.5C33.106,32.5 35.833,29.773 35.833,26.46C35.833,26.459 35.833,26.459 35.833,26.458C35.833,26.458 35.833,10.207 35.833,10.207C35.833,6.894 33.106,4.167 29.793,4.167C29.793,4.167 29.791,4.167 29.79,4.167C26.477,4.167 23.75,6.894 23.75,10.207C23.75,10.207 23.75,32.5 23.75,32.5Z" style="fill:rgb(66,133,244);fill-rule:nonzero;"/>
        <path d="M13.748,32.5L13.752,32.5C17.065,32.5 19.792,29.773 19.792,26.46C19.792,26.459 19.792,26.457 19.792,26.457C19.792,23.144 17.065,20.417 13.752,20.417L13.748,20.417C10.435,20.417 7.708,23.144 7.708,26.457C7.708,26.457 7.708,26.459 7.708,26.46C7.708,29.773 10.435,32.5 13.748,32.5Z" style="fill:rgb(251,188,4);fill-rule:nonzero;"/>
        <path d="M27.971,32.5C27.971,32.5 22.082,32.5 22.082,32.5C18.769,32.5 16.042,29.773 16.042,26.46C16.042,26.459 16.042,26.459 16.042,26.458L16.042,18.542C16.042,18.541 16.042,18.541 16.042,18.54C16.042,15.227 18.769,12.5 22.082,12.5C22.082,12.5 22.084,12.5 22.085,12.5C25.398,12.5 28.125,15.227 28.125,18.54C28.125,18.541 28.125,18.541 28.125,18.542L28.125,32.346C28.125,32.43 28.055,32.5 27.971,32.5Z" style="fill:rgb(52,168,83);fill-rule:nonzero;"/>
        <path d="M28.125,32.346C28.125,32.346 28.125,18.542 28.125,18.542C28.125,15.855 26.332,13.476 23.75,12.735L23.75,32.5L27.97,32.5C27.97,32.5 27.971,32.5 27.971,32.5C28.055,32.5 28.125,32.43 28.125,32.346Z" style="fill:rgb(25,103,210);fill-rule:nonzero;"/>
        <path d="M19.792,26.575C19.792,24.128 18.306,21.913 16.042,20.985L16.042,26.575C16.042,28.295 16.762,29.848 17.917,30.948C19.115,29.81 19.794,28.227 19.792,26.575Z" style="fill:rgb(234,67,53);fill-rule:nonzero;"/>
    </g>
</svg>
